<svg width="16" height="16" viewBox="0 0 16 16" fill="none" xmlns="http://www.w3.org/2000/svg">
<path d="M7.99963 7.99902C8.79528 7.99902 9.55835 7.68295 10.121 7.12034C10.6836 6.55773 10.9996 5.79467 10.9996 4.99902C10.9996 4.20337 10.6836 3.44031 10.121 2.8777C9.55835 2.31509 8.79528 1.99902 7.99963 1.99902C7.20398 1.99902 6.44092 2.31509 5.87831 2.8777C5.3157 3.44031 4.99963 4.20337 4.99963 4.99902C4.99963 5.79467 5.3157 6.55773 5.87831 7.12034C6.44092 7.68295 7.20398 7.99902 7.99963 7.99902ZM9.99963 4.99902C9.99963 5.52946 9.78892 6.03816 9.41385 6.41324C9.03877 6.78831 8.53007 6.99902 7.99963 6.99902C7.4692 6.99902 6.96049 6.78831 6.58542 6.41324C6.21035 6.03816 5.99963 5.52946 5.99963 4.99902C5.99963 4.46859 6.21035 3.95988 6.58542 3.58481C6.96049 3.20974 7.4692 2.99902 7.99963 2.99902C8.53007 2.99902 9.03877 3.20974 9.41385 3.58481C9.78892 3.95988 9.99963 4.46859 9.99963 4.99902ZM13.9996 12.999C13.9996 13.999 12.9996 13.999 12.9996 13.999H2.99963C2.99963 13.999 1.99963 13.999 1.99963 12.999C1.99963 11.999 2.99963 8.99902 7.99963 8.99902C12.9996 8.99902 13.9996 11.999 13.9996 12.999ZM12.9996 12.995C12.9986 12.749 12.8456 12.009 12.1676 11.331C11.5156 10.679 10.2886 9.99902 7.99963 9.99902C5.70963 9.99902 4.48363 10.679 3.83163 11.331C3.15363 12.009 3.00163 12.749 2.99963 12.995H12.9996Z" fill="#F8F9FA"/>
</svg>
