<svg width="56" height="56" viewBox="0 0 56 56" fill="none" xmlns="http://www.w3.org/2000/svg">
<path d="M41.7161 12.4443L39.2169 40.4411L27.9832 43.5554L16.7804 40.4455L14.2839 12.4443H41.7161Z" fill="#264DE4"/>
<path d="M37.0774 38.6584L39.2131 14.7339H28V41.175L37.0774 38.6584Z" fill="#2965F1"/>
<path d="M20.007 25.1191L20.3148 28.5533H28V25.1191H20.007Z" fill="#EBEBEB"/>
<path d="M28 18.168H27.9881H19.3885L19.7007 21.6022H28V18.168Z" fill="#EBEBEB"/>
<path d="M28 37.611V34.038L27.9849 34.042L24.1602 33.0092L23.9157 30.2703H22.0572H20.4683L20.9494 35.6625L27.9841 37.6154L28 37.611Z" fill="#EBEBEB"/>
<path d="M32.217 28.5531L31.8183 33.007L27.9881 34.0408V37.6137L35.0284 35.6625L35.0801 35.0823L35.8871 26.0411L35.9709 25.1189L36.5909 18.168H27.9881V21.6022H32.8273L32.5148 25.1189H27.9881V28.5531H32.217Z" fill="#1E2235"/>
</svg>
