<svg width="19" height="19" viewBox="0 0 19 19" fill="none" xmlns="http://www.w3.org/2000/svg">
<g clip-path="url(#clip0_129_5808)">
<path d="M16.1064 11.0901L17.9066 11.751C18.1375 11.8357 18.1726 12.1477 17.9663 12.2816L10.8688 16.8889C10.7911 16.9393 10.7026 16.9709 10.6105 16.9813C10.5185 16.9917 10.4252 16.9805 10.3382 16.9486L2.39449 14.0334C2.34258 14.0141 2.29703 13.9809 2.26291 13.9373C2.22879 13.8937 2.20745 13.8414 2.20126 13.7864C2.19507 13.7314 2.20428 13.6758 2.22785 13.6257C2.25143 13.5756 2.28846 13.533 2.3348 13.5027L3.94413 12.4583L9.52505 14.5062C10.0551 14.7002 10.6463 14.6337 11.119 14.3269L16.1053 11.0892L16.1064 11.0901ZM8.63036 1.76738C8.70814 1.71699 8.79656 1.68537 8.88865 1.67501C8.98074 1.66465 9.07398 1.67584 9.16101 1.70768L17.1046 4.62193C17.1565 4.64133 17.202 4.67472 17.2361 4.7184C17.2701 4.76208 17.2915 4.81435 17.2977 4.8694C17.3039 4.92446 17.2947 4.98015 17.2712 5.03031C17.2476 5.08047 17.2107 5.12314 17.1644 5.15358L10.0667 9.7589C9.98896 9.80929 9.90054 9.84091 9.80845 9.85127C9.71635 9.86163 9.62311 9.85044 9.53609 9.81859L1.59262 6.90534C1.54046 6.88623 1.49465 6.85297 1.46033 6.80928C1.42602 6.7656 1.40455 6.71321 1.39834 6.65801C1.39213 6.6028 1.40142 6.54696 1.42517 6.49674C1.44893 6.44652 1.4862 6.40391 1.53281 6.37369L8.63036 1.76738Z" fill="#F8F9FA"/>
<path d="M15.7054 7.52555L17.5056 8.18645C17.7365 8.27117 17.7716 8.5832 17.5653 8.7171L10.4677 13.3234C10.39 13.3738 10.3015 13.4054 10.2094 13.4158C10.1173 13.4261 10.0241 13.415 9.93708 13.3831L1.9935 10.4689C1.94159 10.4496 1.89603 10.4164 1.86192 10.3728C1.8278 10.3291 1.80645 10.2769 1.80027 10.2219C1.79408 10.1669 1.80328 10.1112 1.82686 10.0612C1.85044 10.0111 1.88746 9.9685 1.93381 9.93821L3.54313 8.89375L9.12406 10.9417C9.65406 11.1357 10.2453 11.0691 10.718 10.7624L15.7054 7.52555Z" fill="#F8F9FA"/>
</g>
<defs>
<clipPath id="clip0_129_5808">
<rect width="16" height="16" fill="white" transform="translate(0.939209 2.57001) rotate(-6.41855)"/>
</clipPath>
</defs>
</svg>
