<svg width="56" height="56" viewBox="0 0 56 56" fill="none" xmlns="http://www.w3.org/2000/svg">
<path d="M43.5556 12.4443H12.4445V43.5554H43.5556V12.4443Z" fill="#F7DF1E"/>
<path d="M33.3432 36.7499C33.9699 37.7731 34.7852 38.5252 36.2272 38.5252C37.4385 38.5252 38.2123 37.9198 38.2123 37.0832C38.2123 36.0808 37.4173 35.7257 36.0839 35.1425L35.3531 34.8289C33.2435 33.9302 31.842 32.8042 31.842 30.424C31.842 28.2314 33.5126 26.5623 36.1235 26.5623C37.9822 26.5623 39.3185 27.2092 40.2815 28.903L38.0049 30.3647C37.5037 29.466 36.963 29.1119 36.1235 29.1119C35.2672 29.1119 34.7244 29.6551 34.7244 30.3647C34.7244 31.2418 35.2677 31.5968 36.522 32.14L37.2528 32.4531C39.7368 33.5183 41.1393 34.6042 41.1393 37.0457C41.1393 39.6778 39.0716 41.1198 36.2948 41.1198C33.5798 41.1198 31.8257 39.826 30.9674 38.1302L33.3432 36.7499ZM23.0158 37.0032C23.4751 37.8181 23.8928 38.5069 24.8973 38.5069C25.8578 38.5069 26.4637 38.1311 26.4637 36.6699V26.7292H29.3872V36.7094C29.3872 39.7366 27.6123 41.1144 25.0217 41.1144C22.681 41.1144 21.3254 39.903 20.636 38.444L23.0158 37.0032Z" fill="black"/>
</svg>
