<svg width="20" height="20" viewBox="0 0 20 20" fill="none" xmlns="http://www.w3.org/2000/svg">
<g clip-path="url(#clip0_7_384)">
<path d="M4.99998 1.66669C4.08331 1.66669 3.34165 2.41669 3.34165 3.33335L3.33331 16.6667C3.33331 17.5834 4.07498 18.3334 4.99165 18.3334H15C15.9166 18.3334 16.6666 17.5834 16.6666 16.6667V6.66669L11.6666 1.66669H4.99998ZM10.8333 7.50002V2.91669L15.4166 7.50002H10.8333Z" fill="white" fill-opacity="0.8"/>
<path d="M7.45752 14.3055V10.8568H8.47949V14.3055C8.47949 14.6382 8.40658 14.9241 8.26074 15.1634C8.11491 15.4004 7.91553 15.5827 7.6626 15.7103C7.41195 15.8379 7.12939 15.9017 6.81494 15.9017C6.4891 15.9017 6.20085 15.847 5.9502 15.7376C5.69954 15.6282 5.50244 15.4608 5.35889 15.2352C5.21533 15.0073 5.14355 14.7191 5.14355 14.3704H6.17236C6.17236 14.5527 6.19743 14.6974 6.24756 14.8045C6.29997 14.9116 6.37402 14.9879 6.46973 15.0335C6.56543 15.0791 6.6805 15.1019 6.81494 15.1019C6.94482 15.1019 7.05762 15.0711 7.15332 15.0096C7.24902 14.9481 7.32308 14.8581 7.37549 14.7396C7.43018 14.6211 7.45752 14.4764 7.45752 14.3055ZM11.9453 14.5311C11.9453 14.4422 11.9316 14.3624 11.9043 14.2918C11.8792 14.2189 11.8314 14.1528 11.7607 14.0936C11.6901 14.032 11.591 13.9717 11.4634 13.9124C11.3358 13.8532 11.1706 13.7916 10.9678 13.7278C10.7422 13.6549 10.528 13.5729 10.3252 13.4818C10.1247 13.3906 9.94694 13.2846 9.79199 13.1639C9.63932 13.0408 9.51855 12.8984 9.42969 12.7366C9.3431 12.5748 9.2998 12.3869 9.2998 12.1727C9.2998 11.9653 9.34538 11.7773 9.43652 11.6087C9.52767 11.4378 9.65527 11.292 9.81934 11.1712C9.9834 11.0482 10.1771 10.9536 10.4004 10.8875C10.626 10.8214 10.8732 10.7884 11.1421 10.7884C11.509 10.7884 11.8291 10.8545 12.1025 10.9866C12.376 11.1188 12.5879 11.2999 12.7383 11.5301C12.891 11.7602 12.9673 12.0234 12.9673 12.3196H11.9487C11.9487 12.1738 11.918 12.0462 11.8564 11.9368C11.7972 11.8252 11.7061 11.7374 11.583 11.6736C11.4622 11.6098 11.3096 11.5779 11.125 11.5779C10.9473 11.5779 10.7992 11.6053 10.6807 11.66C10.5622 11.7124 10.4733 11.7842 10.4141 11.8753C10.3548 11.9642 10.3252 12.0644 10.3252 12.1761C10.3252 12.2604 10.3457 12.3367 10.3867 12.4051C10.43 12.4734 10.4938 12.5373 10.5781 12.5965C10.6624 12.6557 10.7661 12.7116 10.8892 12.764C11.0122 12.8164 11.1546 12.8677 11.3164 12.9178C11.5876 12.9998 11.8257 13.0921 12.0308 13.1946C12.2381 13.2972 12.4113 13.4123 12.5503 13.5399C12.6893 13.6675 12.7941 13.8122 12.8647 13.9739C12.9354 14.1357 12.9707 14.3192 12.9707 14.5242C12.9707 14.7407 12.9285 14.9344 12.8442 15.1053C12.7599 15.2762 12.638 15.4209 12.4785 15.5394C12.319 15.6579 12.1287 15.7479 11.9077 15.8094C11.6867 15.8709 11.4395 15.9017 11.166 15.9017C10.9199 15.9017 10.6772 15.8698 10.438 15.806C10.1987 15.7399 9.98112 15.6408 9.78516 15.5086C9.59147 15.3764 9.43652 15.2078 9.32031 15.0027C9.2041 14.7977 9.146 14.555 9.146 14.2747H10.1748C10.1748 14.4297 10.1987 14.5607 10.2466 14.6678C10.2944 14.7749 10.3617 14.8615 10.4482 14.9276C10.5371 14.9936 10.6419 15.0415 10.7627 15.0711C10.8857 15.1007 11.0202 15.1155 11.166 15.1155C11.3438 15.1155 11.4896 15.0905 11.6035 15.0403C11.7197 14.9902 11.8052 14.9207 11.8599 14.8318C11.9168 14.743 11.9453 14.6427 11.9453 14.5311Z" fill="black" fill-opacity="0.8"/>
</g>
<defs>
<clipPath id="clip0_7_384">
<rect width="20" height="20" fill="white"/>
</clipPath>
</defs>
</svg>
