<svg width="16" height="16" viewBox="0 0 16 16" fill="none" xmlns="http://www.w3.org/2000/svg">
<g clip-path="url(#clip0_100_3649)">
<rect width="16" height="16" fill="white" fill-opacity="0.01"/>
<path fill-rule="evenodd" clip-rule="evenodd" d="M1.99966 13.4993V6.99933H2.99966V13.4993C2.99966 13.6319 3.05233 13.7591 3.1461 13.8529C3.23987 13.9467 3.36705 13.9993 3.49966 13.9993H12.4997C12.6323 13.9993 12.7594 13.9467 12.8532 13.8529C12.947 13.7591 12.9997 13.6319 12.9997 13.4993V6.99933H13.9997V13.4993C13.9997 13.8972 13.8416 14.2787 13.5603 14.56C13.279 14.8413 12.8975 14.9993 12.4997 14.9993H3.49966C3.10183 14.9993 2.7203 14.8413 2.43899 14.56C2.15769 14.2787 1.99966 13.8972 1.99966 13.4993ZM12.9997 2.49933V5.99933L10.9997 3.99933V2.49933C10.9997 2.36672 11.0523 2.23954 11.1461 2.14578C11.2399 2.05201 11.367 1.99933 11.4997 1.99933H12.4997C12.6323 1.99933 12.7594 2.05201 12.8532 2.14578C12.947 2.23954 12.9997 2.36672 12.9997 2.49933Z" fill="#F8F9FA"/>
<path fill-rule="evenodd" clip-rule="evenodd" d="M7.29266 1.49933C7.48018 1.31186 7.73449 1.20654 7.99966 1.20654C8.26482 1.20654 8.51913 1.31186 8.70665 1.49933L15.3537 8.14533C15.4475 8.23922 15.5003 8.36655 15.5003 8.49933C15.5003 8.63211 15.4475 8.75944 15.3537 8.85333C15.2598 8.94722 15.1324 8.99996 14.9997 8.99996C14.8669 8.99996 14.7395 8.94722 14.6457 8.85333L7.99966 2.20633L1.35365 8.85333C1.25977 8.94722 1.13243 8.99996 0.999655 8.99996C0.866879 8.99996 0.739542 8.94722 0.645655 8.85333C0.551768 8.75944 0.499023 8.63211 0.499023 8.49933C0.499023 8.36655 0.551768 8.23922 0.645655 8.14533L7.29266 1.49933Z" fill="#F8F9FA"/>
</g>
<defs>
<clipPath id="clip0_100_3649">
<rect width="16" height="16" fill="white"/>
</clipPath>
</defs>
</svg>
