<svg width="20" height="20" viewBox="0 0 20 20" fill="none" xmlns="http://www.w3.org/2000/svg">
<g clip-path="url(#clip0_7_387)">
<path d="M4.99998 1.66669C4.08331 1.66669 3.34165 2.41669 3.34165 3.33335L3.33331 16.6667C3.33331 17.5834 4.07498 18.3334 4.99165 18.3334H15C15.9166 18.3334 16.6666 17.5834 16.6666 16.6667V6.66669L11.6666 1.66669H4.99998ZM10.8333 7.50002V2.91669L15.4166 7.50002H10.8333Z" fill="white" fill-opacity="0.8"/>
<path d="M5.9126 10.8568H6.78076L8.05908 14.5106L9.3374 10.8568H10.2056L8.40771 15.8333H7.71045L5.9126 10.8568ZM5.44434 10.8568H6.30908L6.46631 14.4183V15.8333H5.44434V10.8568ZM9.80908 10.8568H10.6772V15.8333H9.65186V14.4183L9.80908 10.8568ZM13.104 15.8333H12.0205L12.0273 15.0335H13.104C13.3729 15.0335 13.5996 14.9731 13.7842 14.8524C13.9688 14.7293 14.1077 14.5504 14.2012 14.3157C14.2969 14.081 14.3447 13.7973 14.3447 13.4647V13.222C14.3447 12.9668 14.3174 12.7423 14.2627 12.5486C14.2103 12.355 14.1317 12.192 14.0269 12.0599C13.922 11.9277 13.7933 11.8286 13.6406 11.7625C13.488 11.6942 13.3125 11.66 13.1143 11.66H12V10.8568H13.1143C13.4469 10.8568 13.7511 10.9137 14.0269 11.0276C14.3049 11.1393 14.5452 11.2999 14.748 11.5096C14.9508 11.7192 15.1069 11.9699 15.2163 12.2615C15.328 12.5509 15.3838 12.8734 15.3838 13.2288V13.4647C15.3838 13.8179 15.328 14.1403 15.2163 14.4319C15.1069 14.7236 14.9508 14.9743 14.748 15.1839C14.5475 15.3913 14.3071 15.5519 14.0269 15.6658C13.7489 15.7775 13.4412 15.8333 13.104 15.8333ZM12.6016 10.8568V15.8333H11.5762V10.8568H12.6016Z" fill="black" fill-opacity="0.8"/>
</g>
<defs>
<clipPath id="clip0_7_387">
<rect width="20" height="20" fill="white"/>
</clipPath>
</defs>
</svg>
