<svg width="56" height="56" viewBox="0 0 56 56" fill="none" xmlns="http://www.w3.org/2000/svg">
<path d="M26.7262 12.7762C27.4976 12.3347 28.5024 12.3327 29.2732 12.7762C33.1507 14.9673 37.0295 17.1549 40.9064 19.3472C41.6356 19.758 42.1234 20.5695 42.1159 21.4097V34.5918C42.1214 35.4668 41.5854 36.2977 40.8161 36.6991C36.9513 38.8781 33.0884 41.0597 29.2243 43.2386C28.4369 43.6888 27.412 43.6541 26.6492 43.167C25.4906 42.4954 24.3299 41.827 23.1711 41.156C22.9343 41.0148 22.6674 40.9024 22.5002 40.6729C22.648 40.4736 22.9123 40.4488 23.127 40.3618C23.6107 40.208 24.0549 39.9612 24.4992 39.7216C24.6116 39.6447 24.7487 39.6742 24.8564 39.743C25.8472 40.3111 26.8293 40.8957 27.8234 41.4583C28.0355 41.5808 28.2502 41.4182 28.4315 41.3172C32.2241 39.1737 36.0213 37.0383 39.8132 34.8941C39.9537 34.8265 40.0314 34.6774 40.02 34.5235C40.0226 30.175 40.0206 25.8258 40.0213 21.4773C40.0374 21.3027 39.9363 21.1421 39.7784 21.0707C35.927 18.9017 32.0776 16.7294 28.2268 14.5598C28.1601 14.514 28.0811 14.4894 28.0001 14.4893C27.9192 14.4891 27.8401 14.5135 27.7732 14.5592C23.9225 16.7294 20.0737 18.9037 16.223 21.0725C16.0656 21.1441 15.96 21.302 15.9788 21.4773C15.9794 25.8258 15.9788 30.175 15.9788 34.5242C15.9721 34.5993 15.9886 34.6746 16.026 34.74C16.0635 34.8055 16.12 34.8579 16.1882 34.8902C17.2158 35.4729 18.2447 36.0515 19.2729 36.6322C19.8522 36.944 20.5635 37.1293 21.2017 36.8904C21.7649 36.6884 22.1597 36.1136 22.1489 35.5156C22.1543 31.1925 22.1463 26.8688 22.1529 22.5463C22.1389 22.3544 22.3209 22.1959 22.5075 22.2139C23.0012 22.2106 23.4957 22.2073 23.9894 22.2152C24.1955 22.2106 24.3373 22.4172 24.3118 22.6106C24.3098 26.9611 24.3171 31.3116 24.3085 35.6621C24.3098 36.8216 23.8335 38.0832 22.761 38.6505C21.4398 39.3349 19.8068 39.1898 18.5015 38.5335C17.3716 37.9695 16.2932 37.3039 15.1833 36.6997C14.412 36.3005 13.8787 35.4662 13.8841 34.5919V21.4097C13.876 20.5521 14.3832 19.7258 15.1351 19.3211C18.9993 17.1403 22.8627 14.958 26.7262 12.7762Z" fill="#8CC84B"/>
<path d="M30.0973 21.9075C31.7826 21.799 33.5869 21.8432 35.1034 22.6735C36.2776 23.3097 36.9286 24.645 36.9493 25.9495C36.9165 26.1254 36.7326 26.2225 36.5646 26.2104C36.0756 26.2097 35.5865 26.2171 35.0975 26.2071C34.8901 26.2151 34.7696 26.0238 34.7435 25.8404C34.603 25.2163 34.2626 24.5981 33.6752 24.2971C32.7733 23.8455 31.7277 23.8682 30.7443 23.8777C30.0264 23.9158 29.2544 23.9779 28.6462 24.4001C28.1793 24.7199 28.0375 25.3654 28.2041 25.8853C28.3613 26.2586 28.7922 26.379 29.1447 26.4901C31.1758 27.0213 33.328 26.9684 35.3203 27.6675C36.1451 27.9525 36.952 28.5065 37.2343 29.3701C37.6036 30.5275 37.4417 31.911 36.6182 32.8402C35.9504 33.6049 34.9778 34.021 34.0077 34.2471C32.7172 34.5348 31.3779 34.5422 30.0673 34.4144C28.8349 34.2739 27.5525 33.9501 26.6011 33.1105C25.7876 32.4041 25.3903 31.3035 25.4297 30.2412C25.4392 30.0618 25.6178 29.9367 25.7896 29.9515C26.282 29.9475 26.7744 29.9461 27.2669 29.9521C27.4635 29.9381 27.6093 30.108 27.6194 30.2934C27.7103 30.8881 27.9338 31.5122 28.4523 31.8648C29.4531 32.5105 30.7088 32.4662 31.8548 32.4843C32.8041 32.4422 33.8698 32.4295 34.6446 31.802C35.0533 31.4441 35.1744 30.8453 35.064 30.3302C34.9443 29.8953 34.4893 29.6926 34.0987 29.5601C32.0937 28.9259 29.9174 29.156 27.9318 28.4388C27.1257 28.1539 26.3462 27.6153 26.0365 26.7871C25.6044 25.6151 25.8024 24.1653 26.7122 23.2675C27.5993 22.3744 28.8798 22.0305 30.0973 21.9074V21.9075Z" fill="#8CC84B"/>
</svg>
