<svg width="16" height="16" viewBox="0 0 16 16" fill="none" xmlns="http://www.w3.org/2000/svg">
<g clip-path="url(#clip0_100_5611)">
<rect width="16" height="16" fill="white" fill-opacity="0.01"/>
<g clip-path="url(#clip1_100_5611)">
<path d="M0.499661 2.99902L0.539661 3.86902C0.275827 4.25257 0.154809 4.71647 0.197661 5.18002L0.834661 12.18C0.879817 12.6769 1.10909 13.139 1.47746 13.4756C1.84583 13.8121 2.3267 13.9988 2.82566 13.999H8.99966V12.999H2.82566C2.57619 12.9988 2.33581 12.9053 2.15172 12.7369C1.96763 12.5686 1.85311 12.3375 1.83066 12.089L1.19366 5.08902C1.18116 4.95067 1.19762 4.81124 1.24199 4.6796C1.28636 4.54796 1.35768 4.42701 1.45138 4.32447C1.54509 4.22192 1.65913 4.14001 1.78624 4.08398C1.91335 4.02795 2.05075 3.99902 2.18966 3.99902H13.8097C13.9486 3.99902 14.086 4.02795 14.2131 4.08398C14.3402 4.14001 14.4542 4.22192 14.5479 4.32447C14.6416 4.42701 14.713 4.54796 14.7573 4.6796C14.8017 4.81124 14.8182 4.95067 14.8057 5.08902L14.5397 7.99902H15.5447L15.8007 5.18002C15.8258 4.90333 15.793 4.62443 15.7044 4.3611C15.6158 4.09778 15.4733 3.85581 15.286 3.65061C15.0986 3.44542 14.8706 3.2815 14.6164 3.16932C14.3623 3.05713 14.0875 2.99913 13.8097 2.99902H9.82766C9.29727 2.99891 8.78865 2.78812 8.41366 2.41302L7.58566 1.58502C7.21068 1.20992 6.70205 0.999137 6.17166 0.999023H2.49966C1.96923 0.999023 1.46052 1.20974 1.08545 1.58481C0.710375 1.95988 0.499661 2.46859 0.499661 2.99902ZM6.17166 1.99902C6.43686 1.99908 6.69117 2.10447 6.87866 2.29202L7.58566 2.99902H2.18966C1.94966 2.99902 1.71966 3.04102 1.50666 3.11902L1.49966 2.97902C1.5049 2.71729 1.61256 2.46804 1.79953 2.28481C1.9865 2.10158 2.23787 1.99897 2.49966 1.99902H6.17166Z" fill="#F8F9FA"/>
<path d="M15.8537 10.145C15.9002 10.1915 15.9372 10.2466 15.9624 10.3074C15.9876 10.3681 16.0006 10.4333 16.0006 10.499C16.0006 10.5648 15.9876 10.6299 15.9624 10.6907C15.9372 10.7514 15.9002 10.8066 15.8537 10.853L12.8537 13.853C12.7599 13.9468 12.6327 13.9994 12.5002 13.9994C12.3676 13.9994 12.2404 13.9468 12.1467 13.853L10.6467 12.353C10.5528 12.2593 10.5 12.1321 10.4999 11.9994C10.4998 11.8667 10.5524 11.7394 10.6462 11.6455C10.7399 11.5516 10.8671 11.4988 10.9998 11.4987C11.1325 11.4987 11.2598 11.5513 11.3537 11.645L12.4997 12.792L15.1457 10.145C15.1921 10.0985 15.2473 10.0615 15.308 10.0363C15.3688 10.0111 15.4339 9.99813 15.4997 9.99813C15.5654 9.99813 15.6305 10.0111 15.6913 10.0363C15.752 10.0615 15.8072 10.0985 15.8537 10.145Z" fill="#F8F9FA"/>
</g>
</g>
<defs>
<clipPath id="clip0_100_5611">
<rect width="16" height="16" fill="white"/>
</clipPath>
<clipPath id="clip1_100_5611">
<rect width="16" height="16" fill="white"/>
</clipPath>
</defs>
</svg>
