<svg width="18" height="18" viewBox="0 0 18 18" fill="none" xmlns="http://www.w3.org/2000/svg">
<g clip-path="url(#clip0_129_5790)">
<rect width="16" height="16" transform="translate(0.017334 1.79797) rotate(-6.41855)" fill="white" fill-opacity="0.01"/>
<g clip-path="url(#clip1_129_5790)">
<path d="M8.32425 7.14909C8.39667 6.80886 8.85975 6.75677 9.00595 7.0724L9.86345 8.92515C10.0521 9.33241 10.3331 9.69013 10.684 9.96995C11.035 10.2498 11.4463 10.444 11.8853 10.5372L13.8813 10.9618C14.2215 11.0342 14.2736 11.4973 13.958 11.6435L12.1052 12.501C11.698 12.6896 11.3403 12.9706 11.0604 13.3215C10.7806 13.6725 10.5864 14.0838 10.4932 14.5228L10.0686 16.5188C10.0531 16.5933 10.0145 16.6609 9.95831 16.7122C9.90209 16.7634 9.83113 16.7955 9.75556 16.804C9.67998 16.8125 9.60365 16.7969 9.53745 16.7595C9.47126 16.7221 9.41858 16.6647 9.38693 16.5955L8.52944 14.7427C8.34087 14.3356 8.06008 13.9779 7.70931 13.6981C7.35854 13.4183 6.94743 13.224 6.50854 13.1306L4.51158 12.7061C4.43712 12.6907 4.36945 12.652 4.31824 12.5958C4.26702 12.5396 4.23487 12.4686 4.22636 12.3931C4.21786 12.3175 4.23345 12.2412 4.27089 12.175C4.30834 12.1088 4.36573 12.0561 4.43489 12.0244L6.28765 11.1669C6.69481 10.9784 7.05247 10.6976 7.3323 10.3468C7.61213 9.99605 7.80644 9.58494 7.89983 9.14605L8.32425 7.14909ZM3.91545 2.5139C3.92486 2.46926 3.94809 2.42872 3.98186 2.39805C4.01562 2.36737 4.05819 2.34811 4.10352 2.34301C4.14885 2.33791 4.19464 2.34723 4.23438 2.36964C4.27411 2.39205 4.30577 2.42641 4.32486 2.46784L4.83934 3.57929C5.06916 4.07471 5.518 4.43277 6.0521 4.54678L7.25008 4.80146C7.29471 4.81086 7.33525 4.8341 7.36593 4.86786C7.3966 4.90163 7.41586 4.9442 7.42096 4.98953C7.42606 5.03486 7.41674 5.08065 7.39433 5.12038C7.37193 5.16012 7.33757 5.19178 7.29613 5.21087L6.18468 5.72535C5.94032 5.83849 5.72567 6.00699 5.55774 6.21749C5.38981 6.428 5.27321 6.67472 5.21719 6.93811L4.96252 8.13609C4.95311 8.18072 4.92987 8.22126 4.89611 8.25194C4.86235 8.28261 4.81977 8.30187 4.77444 8.30697C4.72911 8.31207 4.68332 8.30275 4.64359 8.28034C4.60385 8.25793 4.57219 8.22357 4.5531 8.18214L4.03863 7.07069C3.92548 6.82633 3.75698 6.61168 3.54648 6.44375C3.33598 6.27582 3.08926 6.15922 2.82587 6.1032L1.62789 5.84853C1.58325 5.83912 1.54271 5.81588 1.51204 5.78212C1.48136 5.74835 1.4621 5.70578 1.457 5.66045C1.45191 5.61512 1.46122 5.56933 1.48363 5.5296C1.50604 5.48986 1.5404 5.4582 1.58183 5.43911L2.69328 4.92463C2.93764 4.81149 3.15229 4.64299 3.32022 4.43249C3.48815 4.22199 3.60475 3.97527 3.66077 3.71188L3.91545 2.5139ZM10.8229 0.681225C10.8295 0.651826 10.8451 0.625222 10.8676 0.605113C10.89 0.585003 10.9182 0.572387 10.9481 0.569018C10.9781 0.565649 11.0083 0.571695 11.0347 0.586315C11.061 0.600935 11.0822 0.623402 11.0952 0.650594L11.4381 1.3909C11.591 1.72188 11.8906 1.96088 12.2473 2.03648L13.0453 2.20634C13.0747 2.21297 13.1013 2.22859 13.1214 2.25103C13.1415 2.27348 13.1541 2.30163 13.1575 2.33158C13.1609 2.36153 13.1548 2.39178 13.1402 2.41813C13.1256 2.44449 13.1031 2.46563 13.0759 2.47862L12.3356 2.82153C12.1725 2.89696 12.0292 3.00937 11.9172 3.14985C11.8051 3.29032 11.7273 3.45499 11.69 3.63077L11.5202 4.42876C11.5136 4.45816 11.4979 4.48476 11.4755 4.50487C11.453 4.52498 11.4249 4.5376 11.3949 4.54097C11.365 4.54434 11.3347 4.53829 11.3084 4.52367C11.282 4.50905 11.2609 4.48658 11.2479 4.45939L10.905 3.71909C10.8296 3.55599 10.7171 3.41271 10.5767 3.30065C10.4362 3.18858 10.2715 3.11081 10.0957 3.07351L9.29875 2.90354C9.26935 2.89691 9.24275 2.88129 9.22264 2.85884C9.20253 2.8364 9.18991 2.80824 9.18654 2.7783C9.18317 2.74835 9.18922 2.71809 9.20384 2.69174C9.21846 2.66539 9.24093 2.64425 9.26812 2.63125L10.0084 2.28835C10.3394 2.13539 10.5784 1.83579 10.654 1.4791L10.823 0.682219L10.8229 0.681225Z" fill="#F8F9FA"/>
</g>
</g>
<defs>
<clipPath id="clip0_129_5790">
<rect width="16" height="16" fill="white" transform="translate(0.017334 1.79797) rotate(-6.41855)"/>
</clipPath>
<clipPath id="clip1_129_5790">
<rect width="16" height="16" fill="white" transform="translate(0.017334 1.79797) rotate(-6.41855)"/>
</clipPath>
</defs>
</svg>
